# xmcd
#
# Track frame offsets:
#	150
#	15697
#	35694
#	51014
#	66855
#	80193
#	93930
#	111819
#	127443
#	144616
#	164113
#	180779
#
# Disc length: 2569 seconds
# Revision: 0
# Processed by: cddbd v1.5.2PL0 Copyright (c) Steve Scherf et al.
# Submitted via: dBpowerAMP V12.0
#
DISCID=ac0a070c
DTITLE=ClayBank - No Escape
DYEAR=2018
DGENRE=Bluegrass
TTITLE0=Queen of Carolina
TTITLE1=No Escape
TTITLE2=Where's a Train When You Need One
TTITLE3=Bad Weather
TTITLE4=If It Were Anyone But You
TTITLE5=Go Back
TTITLE6=Drown This Town
TTITLE7=Crucified By Me
TTITLE8=Follow This Lonesome Wind
TTITLE9=Poor Lillie
TTITLE10=Shingletown
TTITLE11=I'll Wear a White Robe
EXTD=
EXTT0=
EXTT1=
EXTT2=
EXTT3=
EXTT4=
EXTT5=
EXTT6=
EXTT7=
EXTT8=
EXTT9=
EXTT10=
EXTT11=
PLAYORDER=
